<?xml version="1.0" encoding="utf-8"?>
<!-- Generator: Adobe Illustrator 22.0.1, SVG Export Plug-In . SVG Version: 6.00 Build 0)  -->
<svg version="1.1" id="Blizzard_Night" xmlns="http://www.w3.org/2000/svg" xmlns:xlink="http://www.w3.org/1999/xlink" x="0px"
	 y="0px" viewBox="0 0 512 512" style="enable-background:new 0 0 512 512;" xml:space="preserve">
<style type="text/css">
	.st0{fill:#9C9E9F;}
	.st1{fill:#D9DADB;}
	.st2{fill:#ECEDED;}
	.st3{fill:#C6C7C8;}
	.st4{fill:#FFBE00;}
	.st5{fill:#28B4FF;}
</style>
<title>Icon_Blizzard_Night</title>
<g>
	<path class="st0" d="M195.6,80.3c-0.1,53.5-43.5,96.9-97,96.8c-8.2,0-16.4-1.1-24.3-3.1c13.5,51.8,66.4,82.8,118.2,69.3
		s82.8-66.4,69.3-118.2c-8.9-33.9-35.3-60.4-69.2-69.2C194.5,63.8,195.6,72,195.6,80.3z"/>
	<path class="st1" d="M248,102.4c-2.1-3.5-4.4-6.9-6.9-10.2l6.3-4.9c2.8,3.5,5.3,7.2,7.5,11L248,102.4z"/>
	<path class="st1" d="M168,250.4c-45.9,0-86-31-97.6-75.4c-0.6-2.1,0.7-4.3,2.9-4.9c0.7-0.2,1.4-0.2,2,0
		c49.7,12.9,100.4-16.9,113.3-66.6c4-15.3,4-31.4,0-46.7c-0.5-2.1,0.8-4.3,2.9-4.8c0.6-0.2,1.3-0.2,1.9,0
		c18.4,4.8,35.1,14.7,48.1,28.6c1.7,1.4,1.9,4,0.4,5.6c-1.4,1.7-4,1.9-5.6,0.4c-0.2-0.2-0.4-0.4-0.6-0.7
		c-10.4-11.1-23.4-19.5-37.9-24.4c10.3,54.8-25.8,107.5-80.6,117.8c-12.3,2.3-25,2.3-37.3,0c16.4,48.6,69,74.8,117.6,58.4
		s74.8-69,58.4-117.6c-1.2-3.4-2.5-6.8-4-10c-1-2-0.2-4.4,1.8-5.4s4.4-0.2,5.4,1.8c0,0,0,0.1,0.1,0.1
		c23.6,50.5,1.8,110.5-48.7,134.2C197.2,247.1,182.7,250.4,168,250.4z"/>
	<path class="st2" d="M198.9,326.4c-25.5-0.9-45.4-22.3-44.5-47.8c0.9-24.9,21.4-44.6,46.3-44.5c0.4,0-0.6-7.2-0.6-11.1
		c0-20.4,16.5-36.9,36.9-36.9c6.9,0,13.7,1.9,19.6,5.6c6.4-33.4,38.7-55.2,72.1-48.8c22.4,4.3,40.6,20.7,47.2,42.5
		c38.8,5.1,66.1,40.6,61,79.4c-4.6,35.2-34.6,61.5-70.1,61.6L198.9,326.4z"/>
	<path class="st3" d="M419.5,214.4l6.3-4.9c-3.8-4.8-8.1-9.1-13-12.9l-4.9,6.3C412.2,206.2,416.1,210.1,419.5,214.4z"/>
	<path class="st3" d="M432.1,218.9c-1.1-1.9-3.5-2.6-5.5-1.5s-2.6,3.5-1.5,5.5l0,0c18.1,32.2,6.7,72.9-25.5,91
		c-10,5.6-21.2,8.6-32.7,8.6H200.8c-23.3,0-42.2-18.9-42.2-42.2s18.9-42.2,42.2-42.2c11.2,0,21.9,4.4,29.8,12.3
		c1.5,1.6,4.1,1.7,5.7,0.1s1.7-4.1,0.1-5.7c0,0-0.1-0.1-0.1-0.1c-8.4-8.5-19.7-13.6-31.6-14.5c0-0.2-0.1-0.5-0.1-0.7
		c-0.2-2.1-0.4-4.8-0.4-6.5c0-18.2,14.7-32.9,32.9-32.9c6.2,0,12.2,1.7,17.5,5l5,3.1l1.1-5.7c6-31.2,36.2-51.7,67.4-45.7
		c21,4,38,19.4,44.2,39.8l0.8,2.5l2.6,0.3c8.3,1,16.3,3.7,23.6,7.7c1.9,1.1,4.3,0.5,5.5-1.4c1.1-1.9,0.5-4.3-1.4-5.5
		c-0.1-0.1-0.2-0.1-0.3-0.2c-7.5-4.1-15.6-6.9-24-8.3c-11.9-34.2-49.2-52.3-83.5-40.4c-20.3,7.1-35.9,23.6-41.7,44.3
		c-20.6-9.3-44.8-0.2-54.2,20.4c-2.4,5.3-3.6,11.1-3.6,16.9c0,2.1,0.2,4.8,0.4,7.2l0,0c-27.6,2.3-48.2,26.5-45.9,54.1
		c2.1,26,23.9,46.1,50,46H367c41.3,0,74.8-33.5,74.8-74.8C441.8,242.7,438.5,230.1,432.1,218.9L432.1,218.9z"/>
	<path class="st4" d="M146.9,119.2h-6c0-16.4-4.8-21.2-21.2-21.2v-6c16.4,0,21.2-4.8,21.2-21.2h6c0,16.4,4.8,21.2,21.2,21.2v6
		C151.6,98.1,146.9,102.8,146.9,119.2z M136.3,95.1c3.3,1.6,6,4.3,7.6,7.6c1.6-3.3,4.3-6,7.6-7.6c-3.3-1.6-6-4.3-7.6-7.6
		C142.2,90.8,139.6,93.4,136.3,95.1z"/>
	<path class="st4" d="M139.8,139.9c-3.7-1.6-6.6-4.5-8.2-8.2l-0.8-1.7l-0.8,1.7c-1.6,3.7-4.5,6.6-8.2,8.2l-1.7,0.8l1.7,0.8
		c3.7,1.6,6.6,4.5,8.2,8.2l0.8,1.7l0.8-1.7c1.6-3.7,4.5-6.6,8.2-8.2l1.7-0.8L139.8,139.9z"/>
	<path class="st1" d="M224.6,162.8c-11.6,0-21.1-9.5-21.1-21.1c0-11.6,9.5-21.1,21.1-21.1c11.6,0,21.1,9.5,21.1,21.1
		c0,5.6-2.2,10.9-6.2,14.9C235.6,160.6,230.2,162.8,224.6,162.8z M224.6,128.6c-3.5,0-6.8,1.4-9.3,3.8c-5.2,5.1-5.3,13.3-0.2,18.5
		c5.1,5.2,13.3,5.3,18.5,0.2c0.1-0.1,0.1-0.1,0.2-0.2c5.1-5.1,5.1-13.4,0-18.5C231.4,130,228.1,128.6,224.6,128.6L224.6,128.6z"/>
	<circle class="st1" cx="152.2" cy="205.8" r="10.7"/>
	<path class="st5" d="M214.3,384.9c1,1,2.6,1,3.5,0c1-1,1-2.6,0-3.5c0,0,0,0,0,0l-2.9-2.9h6.6v-5h-6.6l2.9-2.9c1-1,1-2.5,0.1-3.5
		c-1-1-2.5-1-3.5-0.1c0,0,0,0-0.1,0.1l-2.9,2.9v-6.6h-5v6.7l-2.9-3c-0.9-1-2.5-1.1-3.5-0.2s-1.1,2.5-0.2,3.5
		c0.1,0.1,0.1,0.1,0.2,0.2l2.9,2.9h-6.6v5h6.6l-2.9,2.9c-1,1-1,2.6,0,3.5c0,0,0,0,0,0c0.5,0.5,1.1,0.7,1.8,0.7
		c0.7,0,1.3-0.3,1.8-0.7l2.9-2.9v6.6h5V382L214.3,384.9z"/>
	<path class="st5" d="M262.1,384.9c1,1,2.6,1,3.5,0s1-2.6,0-3.5l-2.9-2.9h6.6v-5h-6.6l2.9-2.9c1-1,1-2.5,0.1-3.5c-1-1-2.5-1-3.5-0.1
		c0,0,0,0-0.1,0.1l-2.9,2.9v-6.6h-5v6.7l-2.9-3c-0.9-1-2.5-1.1-3.5-0.2s-1.1,2.5-0.2,3.5c0.1,0.1,0.1,0.1,0.2,0.2l2.9,2.9H244v5h6.6
		l-2.9,2.9c-1,1-1,2.6,0,3.5c0.5,0.5,1.1,0.7,1.8,0.7c0.7,0,1.3-0.3,1.8-0.7l2.9-2.9v6.6h5V382L262.1,384.9z"/>
	<path class="st5" d="M310,384.9c0.5,0.5,1.1,0.7,1.8,0.7c1.4,0,2.5-1.1,2.5-2.5c0-0.7-0.3-1.3-0.7-1.8l-2.9-2.9h6.6v-5h-6.6
		l2.9-2.9c1-1,1-2.6,0-3.5c-1-1-2.6-1-3.5,0l0,0l-2.9,3v-6.6h-5v6.6l-2.9-3c-1-1-2.5-1-3.5-0.1c-1,1-1,2.5-0.1,3.5c0,0,0,0,0.1,0.1
		l2.9,2.9h-6.6v5h6.6l-2.9,2.9c-1,1-1,2.6,0,3.5s2.6,1,3.5,0l2.9-2.9v6.6h5V382L310,384.9z"/>
	<path class="st5" d="M365.1,373.5h-6.6l2.9-2.9c0.9-1,0.8-2.6-0.2-3.5c-0.9-0.8-2.4-0.8-3.3,0l-2.9,2.9v-6.6h-5v6.6l-3-2.9
		c-1-1-2.5-1-3.5-0.1c-1,1-1,2.5-0.1,3.5c0,0,0,0,0.1,0.1l2.9,2.9h-6.6v5h6.6l-2.9,2.9c-1,1-1,2.6,0,3.5s2.6,1,3.5,0l3-2.9v6.6h5
		V382l2.9,2.9c0.5,0.5,1.1,0.7,1.8,0.7c0.7,0,1.3-0.3,1.8-0.7c1-1,1-2.6,0-3.5c0,0,0,0,0,0l-2.9-2.9h6.6L365.1,373.5z"/>
	<path class="st5" d="M181.9,420.7c0.5,0.5,1.1,0.7,1.8,0.7c1.4,0,2.5-1.1,2.5-2.5c0-0.7-0.3-1.3-0.7-1.7l-2.9-2.9h6.6v-5h-6.6
		l2.9-2.9c1-1,0.9-2.6-0.1-3.5c-1-0.9-2.5-0.9-3.5,0l-2.9,2.9v-6.6h-5v6.6l-2.9-2.9c-1-1-2.6-1-3.5,0c-1,1-1,2.6,0,3.5l2.9,2.9h-6.7
		v5h6.6l-2.9,2.9c-1,1-1,2.5-0.1,3.5c1,1,2.5,1,3.5,0.1c0,0,0,0,0.1-0.1l2.9-2.9v6.6h5v-6.6L181.9,420.7z"/>
	<path class="st5" d="M229.8,420.7c1,1,2.6,0.9,3.5-0.1c0.9-1,0.9-2.5,0-3.5l-2.9-2.9h6.6v-5h-6.6l2.9-2.9c1-1,1-2.6,0-3.5
		c-1-1-2.6-1-3.5,0l0,0l-2.9,2.9v-6.6h-5v6.6l-2.9-2.9c-1-1-2.5-1-3.5-0.1c-1,1-1,2.5-0.1,3.5c0,0,0,0,0.1,0.1l2.9,2.9h-6.6v5h6.6
		l-2.9,2.9c-1,1-1,2.6,0,3.5c0.5,0.5,1.1,0.7,1.7,0.7c0.7,0,1.3-0.3,1.8-0.7l2.9-2.9v6.6h5v-6.6L229.8,420.7z"/>
	<path class="st5" d="M277.6,420.7c0.5,0.5,1.1,0.7,1.8,0.7c0.7,0,1.3-0.3,1.8-0.7c1-1,1-2.5,0-3.5c0,0,0,0,0,0l-2.9-2.9h6.6v-5
		h-6.6l2.9-2.9c1-1,0.9-2.6-0.1-3.5c-1-0.9-2.5-0.9-3.5,0l-2.9,2.9v-6.6h-5v6.6l-2.9-2.9c-1-1-2.5-1-3.5-0.1c-1,1-1,2.5-0.1,3.5
		c0,0,0,0,0.1,0.1l2.9,2.9h-6.6v5h6.6l-2.9,2.9c-1,1-1,2.5,0,3.5c0,0,0,0,0,0c0.5,0.5,1.1,0.7,1.8,0.7c0.7,0,1.3-0.3,1.8-0.7
		l2.9-2.9v6.6h5v-6.6L277.6,420.7z"/>
	<path class="st5" d="M329,406.3c1-1,0.9-2.6-0.1-3.5c-1-0.9-2.5-0.9-3.5,0l-2.9,2.9v-6.6h-5v6.6l-2.9-2.9c-1-1-2.6-1-3.5,0
		s-1,2.6,0,3.5l2.9,2.9h-6.6v5h6.6l-2.9,2.9c-1,1-1,2.5-0.1,3.5c1,1,2.5,1,3.5,0.1c0,0,0,0,0.1-0.1l2.9-2.9v6.6h5v-6.6l2.9,2.9
		c1,0.9,2.6,0.8,3.5-0.2c0.8-0.9,0.8-2.4,0-3.3l-2.9-2.9h6.6v-5h-6.6L329,406.3z"/>
	<path class="st5" d="M153.1,442.1c1-1,0.9-2.6-0.1-3.5c-1-0.9-2.5-0.9-3.5,0l-2.9,2.9v-6.6h-5v6.6l-2.9-2.9c-1-1-2.6-1-3.5,0
		c-1,1-1,2.6,0,3.5l2.9,2.9h-6.6v5h6.6l-2.9,2.9c-1,1-0.9,2.6,0.1,3.5c1,0.9,2.5,0.9,3.5,0l2.9-2.9v6.6h5v-6.6l2.9,2.9
		c0.5,0.5,1.1,0.7,1.8,0.7c1.4,0,2.5-1.1,2.5-2.5c0-0.7-0.3-1.3-0.7-1.8l-2.9-2.9h6.6v-5h-6.6L153.1,442.1z"/>
	<path class="st5" d="M200.9,442.1c1-1,1-2.6,0-3.5c-1-1-2.6-1-3.5,0l-2.9,2.9v-6.6h-5v6.6l-2.9-2.9c-1-1-2.6-1-3.5,0
		c-1,1-1,2.6,0,3.5l0,0l2.9,2.9h-6.6v5h6.6l-2.9,2.9c-1,1-1,2.6,0,3.5c0.5,0.5,1.1,0.7,1.8,0.7c0.7,0,1.3-0.3,1.8-0.7l2.9-2.9v6.6h5
		v-6.6l2.9,2.9c1,1,2.5,1,3.5,0.1s1-2.5,0.1-3.5c0,0,0,0-0.1-0.1L198,450h6.6v-5H198L200.9,442.1z"/>
	<path class="st5" d="M248.8,442.1c1-1,1-2.6,0-3.5c-1-1-2.6-1-3.5,0l-2.9,2.9v-6.6h-5v6.6l-2.9-2.9c-1-1-2.6-0.9-3.5,0.1
		c-0.9,1-0.9,2.5,0,3.5l2.9,2.9h-6.6v5h6.6l-2.9,2.9c-0.9,1-0.8,2.6,0.2,3.5c0.9,0.8,2.4,0.8,3.3,0l2.9-2.9v6.6h5v-6.6l2.9,2.9
		c1,1,2.5,1,3.5,0.1s1-2.5,0.1-3.5c0,0,0,0-0.1-0.1l-2.9-2.9h6.6v-5h-6.6L248.8,442.1z"/>
	<path class="st5" d="M296.7,442.1c1-1,0.9-2.6-0.1-3.5c-1-0.9-2.5-0.9-3.5,0l-2.9,2.9v-6.6h-5v6.6l-2.9-2.9c-1-1-2.6-1-3.5,0
		s-1,2.6,0,3.5l2.9,2.9h-6.6v5h6.6l-2.9,2.9c-1,1-0.9,2.6,0.1,3.5c1,0.9,2.5,0.9,3.5,0l2.9-2.9v6.6h5v-6.6l2.9,2.9
		c0.5,0.5,1.1,0.7,1.8,0.7c0.7,0,1.3-0.3,1.8-0.7c1-1,1-2.5,0-3.5c0,0,0,0,0,0l-2.9-2.9h6.6v-5h-6.6L296.7,442.1z"/>
</g>
</svg>
